<?xml version="1.0" encoding="UTF-8" standalone="no"?>
<!-- Created with Inkscape (http://www.inkscape.org/) -->

<svg
   xmlns:dc="http://purl.org/dc/elements/1.1/"
   xmlns:cc="http://creativecommons.org/ns#"
   xmlns:rdf="http://www.w3.org/1999/02/22-rdf-syntax-ns#"
   xmlns:svg="http://www.w3.org/2000/svg"
   xmlns="http://www.w3.org/2000/svg"
   xmlns:sodipodi="http://sodipodi.sourceforge.net/DTD/sodipodi-0.dtd"
   xmlns:inkscape="http://www.inkscape.org/namespaces/inkscape"
   width="640"
   height="220"
   id="svg2"
   version="1.1"
   inkscape:version="0.48.1 "
   sodipodi:docname="kickstand_logo_2c_inverse.svg"
   inkscape:export-filename="C:\Users\Travis\My Dropbox\Kickstand\kickstand logos\kickstand_logo_2c_inverse.png"
   inkscape:export-xdpi="90"
   inkscape:export-ydpi="90">
  <defs
     id="defs4" />
  <sodipodi:namedview
     id="base"
     pagecolor="#ffffff"
     bordercolor="#666666"
     borderopacity="1.0"
     inkscape:pageopacity="0.0"
     inkscape:pageshadow="2"
     inkscape:zoom="0.5"
     inkscape:cx="180.04118"
     inkscape:cy="320.60327"
     inkscape:document-units="px"
     inkscape:current-layer="layer1"
     showgrid="false"
     inkscape:window-width="1600"
     inkscape:window-height="819"
     inkscape:window-x="1271"
     inkscape:window-y="-9"
     inkscape:window-maximized="1">
    <inkscape:grid
       type="xygrid"
       id="grid3014"
       empspacing="5"
       visible="true"
       enabled="true"
       snapvisiblegridlinesonly="true" />
  </sodipodi:namedview>
  <metadata
     id="metadata7">
    <rdf:RDF>
      <cc:Work
         rdf:about="">
        <dc:format>image/svg+xml</dc:format>
        <dc:type
           rdf:resource="http://purl.org/dc/dcmitype/StillImage" />
        <dc:title></dc:title>
      </cc:Work>
    </rdf:RDF>
  </metadata>
  <g
     inkscape:label="Layer 1"
     inkscape:groupmode="layer"
     id="layer1"
     transform="translate(0,-832.36218)">
    <flowRoot
       xml:space="preserve"
       id="flowRoot3890"
       style="font-size:40px;font-style:normal;font-variant:normal;font-weight:normal;font-stretch:normal;line-height:125%;letter-spacing:0px;word-spacing:0px;fill:#000000;fill-opacity:1;stroke:none;font-family:Open Sans;-inkscape-font-specification:Open Sans"
       transform="translate(-2678.9766,618.22934)"><flowRegion
         id="flowRegion3892"><rect
           id="rect3894"
           width="4306.25"
           height="1350"
           x="4600"
           y="177.36218" /></flowRegion><flowPara
         id="flowPara3896" /></flowRoot>    <flowRoot
       xml:space="preserve"
       id="flowRoot3890-5"
       style="font-size:40px;font-style:normal;font-variant:normal;font-weight:normal;font-stretch:normal;line-height:125%;letter-spacing:0px;word-spacing:0px;fill:#000000;fill-opacity:1;stroke:none;font-family:Open Sans;-inkscape-font-specification:Open Sans"
       transform="matrix(0.38292422,0,0,0.38292422,1037.7543,-199.29518)"><flowRegion
         id="flowRegion3892-5"><rect
           id="rect3894-5"
           width="4306.25"
           height="1350"
           x="4600"
           y="177.36218" /></flowRegion><flowPara
         id="flowPara3896-4" /></flowRoot>    <g
       transform="matrix(1.0801327,0,0,1.0741866,-1134.0552,15.7655)"
       id="g4219"
       style="fill:#333333">
      <path
         sodipodi:nodetypes="csccccccccc"
         inkscape:connector-curvature="0"
         style="font-size:117.35437775px;font-style:italic;font-variant:normal;font-weight:500;font-stretch:normal;text-align:start;line-height:125%;letter-spacing:0px;word-spacing:0px;writing-mode:lr-tb;text-anchor:start;fill:#ff4e18;fill-opacity:1;stroke:none;font-family:Ubuntu;-inkscape-font-specification:Ubuntu Medium Italic"
         d="m 1126,860.09375 c -1.3807,1.24653 -2.761,2.49409 -4.1875,3.6875 -1.7073,1.42832 -3.961,3.22699 -6.2813,5.0625 0.9069,1.30038 1.7966,2.64405 2.6563,4.0625 1.5647,2.50357 2.9824,5.08998 4.3125,7.75 1.33,2.66004 2.5609,5.29321 3.6562,7.875 l 15.7188,0 c -0.9389,-2.66003 -2.1386,-5.54253 -3.625,-8.59375 -1.4866,-3.0512 -3.1381,-6.05825 -4.9375,-9.03125 -1.7995,-2.97295 -3.6692,-5.82421 -5.625,-8.5625 -0.5578,-0.78093 -1.1297,-1.52634 -1.6875,-2.25 z"
         id="path4221" />
      <path
         id="path4223"
         d="m 1122.9859,797.4375 -14.7813,2.34375 -21.25,88.75 14.0938,0 4.875,-20.1875 c 2.5377,-1.94801 10.8954,-8.39655 15.875,-12.5625 2.8078,-2.34906 5.4696,-4.86376 8.2187,-7.28125 2.7275,-2.39848 5.5587,-4.73088 8.2188,-7.15625 2.6599,-2.42527 5.1996,-4.85587 7.6249,-7.28125 2.4254,-2.42527 4.5911,-4.74682 6.4688,-6.9375 l -16.3125,0 c -1.4083,1.56479 -3.1066,3.3254 -5.0625,5.28125 -1.9559,1.87772 -4.0437,3.88768 -6.3125,6 -2.1907,2.03419 -4.559,4.10642 -7.0625,6.21875 -2.5036,2.03419 -4.9497,3.99737 -7.375,5.875 l 12.7813,-53.0625 z"
         style="font-size:117.35437775px;font-style:italic;font-variant:normal;font-weight:500;font-stretch:normal;text-align:start;line-height:125%;letter-spacing:0px;word-spacing:0px;writing-mode:lr-tb;text-anchor:start;fill:#ffffff;fill-opacity:1;stroke:none;font-family:Ubuntu;-inkscape-font-specification:Ubuntu Medium Italic"
         inkscape:connector-curvature="0" />
    </g>
    <path
       d="m 125.95965,970.59729 -15.211,0 15.84478,-65.92964 15.33776,0 -15.97154,65.92964 m 11.40824,-75.88842 c -2.28168,8e-5 -4.26757,-0.67224 -5.95764,-2.01696 -1.69014,-1.34457 -2.53519,-3.36154 -2.53516,-6.05091 -3e-5,-3.1094 1.05628,-5.67263 3.16895,-7.68969 2.19711,-2.01687 4.69002,-3.02536 7.47874,-3.02545 2.28161,9e-5 4.26748,0.71444 5.95764,2.14303 1.77457,1.34473 2.66188,3.3617 2.66192,6.0509 -4e-5,3.10958 -1.09862,5.67281 -3.29571,7.68969 -2.19719,1.93301 -4.6901,2.89947 -7.47874,2.89939"
       style="font-size:126.06049347px;font-style:italic;font-variant:normal;font-weight:500;font-stretch:normal;text-align:start;line-height:125%;letter-spacing:0px;word-spacing:0px;writing-mode:lr-tb;text-anchor:start;fill:#ffffff;fill-opacity:1;stroke:none;font-family:Ubuntu;-inkscape-font-specification:Ubuntu Medium Italic"
       id="path4225"
       inkscape:connector-curvature="0" />
    <path
       d="m 148.20374,945.63731 c -1e-5,-5.71471 0.88729,-11.1353 2.66192,-16.2618 1.85911,-5.21045 4.47878,-9.74863 7.85902,-13.61453 3.38019,-3.94984 7.52096,-7.05933 12.42231,-9.32848 4.90128,-2.26902 10.47864,-3.40357 16.7321,-3.40363 3.29565,6e-5 6.29559,0.2942 8.99983,0.88242 2.78862,0.50431 5.40829,1.30269 7.85901,2.39515 l -5.4506,12.22787 c -1.52116,-0.67227 -3.21127,-1.26055 -5.07033,-1.76485 -1.85918,-0.50419 -4.14083,-0.75631 -6.84495,-0.75636 -3.63379,5e-5 -6.9295,0.75641 -9.88714,2.26909 -2.87323,1.42873 -5.32389,3.40368 -7.35198,5.92484 -2.02817,2.52125 -3.59152,5.50468 -4.69006,8.95029 -1.0986,3.44569 -1.64789,7.10144 -1.64786,10.96727 -3e-5,2.18507 0.21123,4.20204 0.63379,6.0509 0.50701,1.76487 1.26755,3.36163 2.28165,4.7903 1.09854,1.34466 2.57738,2.39516 4.43654,3.15151 1.85908,0.75638 4.18299,1.13456 6.97171,1.13455 2.87313,10e-6 5.61956,-0.37817 8.23928,-1.13455 2.70413,-0.75635 4.77451,-1.51271 6.21116,-2.26909 l 1.26758,12.47999 c -1.94368,0.92445 -4.52109,1.80687 -7.73225,2.64727 -3.21126,0.92444 -6.84499,1.38667 -10.90121,1.38667 -4.64785,0 -8.66185,-0.67233 -12.04204,-2.01697 -3.38025,-1.42868 -6.21118,-3.31959 -8.4928,-5.67272 -2.19717,-2.43716 -3.84502,-5.25251 -4.94358,-8.44606 -1.01408,-3.27755 -1.52111,-6.80724 -1.5211,-10.58908"
       style="font-size:126.06049347px;font-style:italic;font-variant:normal;font-weight:500;font-stretch:normal;text-align:start;line-height:125%;letter-spacing:0px;word-spacing:0px;writing-mode:lr-tb;text-anchor:start;fill:#ffffff;fill-opacity:1;stroke:none;font-family:Ubuntu;-inkscape-font-specification:Ubuntu Medium Italic"
       id="path4227"
       inkscape:connector-curvature="0" />
    <path
       d="m 295.02152,959.88215 c 4.05623,10e-6 7.26744,-0.63029 9.63363,-1.89091 2.36611,-1.34463 3.54919,-3.3616 3.54923,-6.0509 -4e-5,-2.18503 -0.76059,-3.90786 -2.28165,-5.16848 -1.52113,-1.34462 -4.18306,-2.89937 -7.98577,-4.66424 -2.02817,-0.92442 -3.92953,-1.89088 -5.70412,-2.89939 -1.69014,-1.00845 -3.16899,-2.18502 -4.43654,-3.5297 -1.2676,-1.34461 -2.28168,-2.89935 -3.0422,-4.66423 -0.76057,-1.84885 -1.14084,-4.0339 -1.14083,-6.55515 -10e-6,-6.55509 2.40839,-11.76559 7.22522,-15.6315 4.81679,-3.86579 11.78849,-5.79872 20.91512,-5.79878 4.22523,6e-5 7.98572,0.46228 11.28149,1.38666 3.38016,0.84047 5.91533,1.72289 7.6055,2.64727 l -5.45061,11.84969 c -1.43665,-0.84035 -3.50703,-1.63873 -6.21116,-2.39515 -2.70422,-0.84035 -5.53516,-1.26055 -8.4928,-1.26061 -1.43664,6e-5 -2.87323,0.12612 -4.30978,0.37819 -1.35213,0.25217 -2.57746,0.67237 -3.67599,1.2606 -1.09861,0.58834 -2.02817,1.42874 -2.78868,2.52121 -0.67608,1.00853 -1.0141,2.26914 -1.01407,3.78182 -3e-5,1.93297 0.76051,3.52973 2.28165,4.79029 1.60556,1.17661 3.88721,2.43721 6.84495,3.78182 2.78863,1.26064 5.15478,2.47922 7.09846,3.65575 1.94357,1.1766 3.54918,2.52125 4.81681,4.03394 1.26754,1.42871 2.19709,3.0675 2.78869,4.91636 0.59148,1.76487 0.88725,3.9079 0.88731,6.42908 -6e-5,3.10951 -0.63385,6.0089 -1.90138,8.69818 -1.26764,2.60526 -3.12675,4.87434 -5.57736,6.80726 -2.36621,1.84889 -5.3239,3.3196 -8.87309,4.41212 -3.54927,1.09252 -7.60553,1.63879 -12.16879,1.63879 -3.12673,0 -5.95766,-0.2101 -8.49281,-0.63031 -2.45067,-0.4202 -4.60556,-0.88242 -6.46467,-1.38666 -1.85913,-0.58828 -3.42248,-1.17656 -4.69006,-1.76485 -1.26758,-0.58828 -2.23939,-1.09252 -2.91544,-1.51272 l 5.45061,-11.97575 c 0.59153,0.33618 1.43658,0.7984 2.53517,1.38667 1.18306,0.50425 2.49289,1.00849 3.92951,1.51272 1.52107,0.50426 3.16893,0.96648 4.94357,1.38667 1.8591,0.33617 3.80271,0.50425 5.83088,0.50424"
       style="font-size:126.06049347px;font-style:italic;font-variant:normal;font-weight:500;font-stretch:normal;text-align:start;line-height:125%;letter-spacing:0px;word-spacing:0px;writing-mode:lr-tb;text-anchor:start;fill:#ffffff;fill-opacity:1;stroke:none;font-family:Ubuntu;-inkscape-font-specification:Ubuntu Medium Italic"
       id="path4229"
       inkscape:connector-curvature="0" />
    <path
       d="m 349.71773,887.2713 15.97154,-2.52121 -4.81682,19.91756 21.67568,0 -3.0422,12.60605 -21.67567,0 -6.33791,26.09452 c -0.42256,1.84892 -0.71834,3.40366 -0.88732,4.66424 -0.16904,1.17659 -0.25354,2.26911 -0.25351,3.27758 -3e-5,1.0085 0.0845,2.01698 0.25351,3.02545 0.25349,0.92446 0.67602,1.76486 1.26759,2.52121 0.67601,0.67233 1.60557,1.26061 2.78868,1.76484 1.26755,0.42022 2.95765,0.63032 5.07033,0.63031 2.28161,10e-6 4.47875,-0.29413 6.59143,-0.88243 2.1126,-0.58827 3.97171,-1.21857 5.57737,-1.8909 l 1.14082,12.22786 c -1.94368,0.84041 -4.39433,1.63879 -7.35198,2.39515 -2.95773,0.75636 -6.42245,1.13455 -10.39418,1.13455 -7.2675,0 -12.46459,-1.55475 -15.59127,-4.66424 -3.12672,-3.19353 -4.69007,-7.5216 -4.69006,-12.98423 -10e-6,-2.01695 0.12675,-4.07594 0.38028,-6.17697 0.33801,-2.18502 0.80279,-4.49613 1.39434,-6.93332 l 12.92935,-54.20602"
       style="font-size:126.06049347px;font-style:italic;font-variant:normal;font-weight:500;font-stretch:normal;text-align:start;line-height:125%;letter-spacing:0px;word-spacing:0px;writing-mode:lr-tb;text-anchor:start;fill:#ffffff;fill-opacity:1;stroke:none;font-family:Ubuntu;-inkscape-font-specification:Ubuntu Medium Italic"
       id="path4231"
       inkscape:connector-curvature="0" />
    <path
       d="m 440.01914,945.00701 c -0.25359,0.92447 -0.5071,2.43719 -0.76056,4.53818 -0.25357,2.10103 -0.38033,4.07597 -0.38027,5.92484 -6e-5,2.43718 0.2112,4.83233 0.6338,7.18545 0.42246,2.26909 1.0985,4.5802 2.02812,6.93333 l -13.68989,2.01696 c -1.01412,-2.01696 -1.81692,-4.15999 -2.40841,-6.42908 -2.11269,1.84889 -4.73236,3.5297 -7.85901,5.04242 -3.04224,1.42868 -6.50696,2.14303 -10.39418,2.14303 -3.97179,0 -7.39426,-0.63031 -10.26742,-1.89091 -2.7887,-1.34464 -5.07035,-3.15151 -6.84495,-5.4206 -1.77463,-2.35312 -3.08446,-5.08443 -3.9295,-8.19393 -0.84507,-3.10948 -1.2676,-6.47109 -1.26759,-10.08484 -10e-6,-6.13492 1.09856,-11.84965 3.29572,-17.14423 2.19713,-5.29449 5.23932,-9.87469 9.12659,-13.74059 3.97174,-3.8658 8.66179,-6.89125 14.07018,-9.07636 5.4083,-2.26902 11.32369,-3.40357 17.74616,-3.40363 3.29565,6e-5 6.59137,0.29421 9.88714,0.88242 3.38016,0.50431 6.76037,1.51279 10.14066,3.02545 l -9.12659,37.69209 m -8.36605,-28.48967 c -1.60566,-0.33611 -3.42252,-0.50419 -5.45061,-0.50424 -3.80279,5e-5 -7.30977,0.84045 -10.52094,2.52121 -3.21124,1.59681 -5.99992,3.78186 -8.36604,6.55514 -2.28168,2.68934 -4.0563,5.79882 -5.32385,9.32848 -1.26761,3.52973 -1.9014,7.2275 -1.90137,11.09332 -3e-5,1.93295 0.16899,3.73982 0.50703,5.4206 0.338,1.68083 0.88728,3.15153 1.64786,4.41212 0.84502,1.26062 1.9436,2.2691 3.29571,3.02545 1.35205,0.75638 3.08442,1.13456 5.19709,1.13455 2.70414,10e-6 5.07029,-0.54625 7.09847,-1.63879 2.11259,-1.17655 4.05622,-2.73129 5.83088,-4.66424 0.0845,-2.18503 0.25346,-4.24401 0.50704,-6.17696 0.33797,-1.9329 0.76049,-3.86583 1.26757,-5.79878 l 6.21116,-24.70786"
       style="font-size:126.06049347px;font-style:italic;font-variant:normal;font-weight:500;font-stretch:normal;text-align:start;line-height:125%;letter-spacing:0px;word-spacing:0px;writing-mode:lr-tb;text-anchor:start;fill:#ffffff;fill-opacity:1;stroke:none;font-family:Ubuntu;-inkscape-font-specification:Ubuntu Medium Italic"
       id="path4233"
       inkscape:connector-curvature="0" />
    <path
       d="m 468.10798,907.44098 c 3.38019,-1.00842 7.22518,-1.93286 11.535,-2.77333 4.39425,-0.92437 9.1688,-1.3866 14.32369,-1.38666 7.77445,6e-5 13.47857,1.89097 17.11236,5.67272 3.63367,3.78187 5.45054,8.86631 5.45062,15.25332 -8e-5,1.76489 -0.1691,3.6558 -0.50705,5.67272 -0.25358,1.93297 -0.5916,3.94993 -1.01406,6.0509 l -8.36604,34.66664 -15.33776,0 7.85902,-33.02785 c 0.42246,-1.84885 0.84499,-3.73976 1.26758,-5.67272 0.42247,-1.93289 0.67599,-3.78177 0.76055,-5.54666 0.0845,-2.94137 -0.63385,-5.37853 -2.15489,-7.31151 -1.43665,-1.93288 -4.30984,-2.89934 -8.61957,-2.89939 -3.63377,5e-5 -6.76048,0.37823 -9.38011,1.13454 l -12.80258,53.32359 -15.33776,0 15.211,-63.15631"
       style="font-size:126.06049347px;font-style:italic;font-variant:normal;font-weight:500;font-stretch:normal;text-align:start;line-height:125%;letter-spacing:0px;word-spacing:0px;writing-mode:lr-tb;text-anchor:start;fill:#ffffff;fill-opacity:1;stroke:none;font-family:Ubuntu;-inkscape-font-specification:Ubuntu Medium Italic"
       id="path4235"
       inkscape:connector-curvature="0" />
    <path
       d="m 549.55017,972.36214 c -3.97178,0 -7.39425,-0.63031 -10.26742,-1.89091 -2.87321,-1.34464 -5.23936,-3.15151 -7.09846,-5.4206 -1.77464,-2.26908 -3.08447,-4.95837 -3.92951,-8.06787 -0.84507,-3.10948 -1.2676,-6.47109 -1.26758,-10.08484 -2e-5,-5.63067 0.9718,-11.05127 2.91544,-16.26181 2.02812,-5.29449 4.85905,-9.9167 8.49281,-13.86665 3.71821,-4.03388 8.23925,-7.22741 13.56313,-9.5806 5.32381,-2.4371 11.36595,-3.65568 18.12643,-3.65575 0.84501,7e-5 1.85907,0.0421 3.0422,0.12606 1.18302,0.0841 2.49285,0.29421 3.92951,0.6303 l 6.97171,-28.99391 15.97154,-2.52121 -17.36588,71.4763 c -0.4226,1.93295 -0.76062,3.9079 -1.01407,5.92484 -0.16908,1.93295 -0.25358,3.78183 -0.25351,5.54666 -7e-5,2.2691 0.21119,4.53819 0.63379,6.80727 0.42245,2.26909 1.0985,4.62222 2.02813,7.05939 l -13.6899,2.01696 c -0.92961,-1.76484 -1.73242,-3.90787 -2.40841,-6.42908 -2.11268,1.84889 -4.6901,3.5297 -7.73225,5.04242 -3.04224,1.42868 -6.59147,2.14303 -10.6477,2.14303 m 24.46436,-55.71874 c -1.60566,-0.33611 -3.54929,-0.50419 -5.83088,-0.50424 -3.88731,5e-5 -7.43654,0.84045 -10.64771,2.52121 -3.21125,1.59681 -5.95767,3.78186 -8.23928,6.55514 -2.28168,2.68934 -4.05629,5.79883 -5.32385,9.32848 -1.1831,3.52973 -1.77464,7.18548 -1.77462,10.96726 -2e-5,1.93295 0.16899,3.73982 0.50704,5.4206 0.4225,1.68083 1.05629,3.15153 1.90137,4.41212 0.84503,1.26062 1.9436,2.2691 3.29572,3.02545 1.43656,0.75638 3.16891,1.13456 5.19709,1.13455 2.70414,10e-6 5.07028,-0.54625 7.09846,-1.63879 2.1126,-1.09251 4.09847,-2.60523 5.95764,-4.53818 0.0845,-1.76482 0.25347,-3.61371 0.50703,-5.54666 0.33797,-1.9329 0.71825,-3.82381 1.14082,-5.67272 l 6.21117,-25.46422"
       style="font-size:126.06049347px;font-style:italic;font-variant:normal;font-weight:500;font-stretch:normal;text-align:start;line-height:125%;letter-spacing:0px;word-spacing:0px;writing-mode:lr-tb;text-anchor:start;fill:#ffffff;fill-opacity:1;stroke:none;font-family:Ubuntu;-inkscape-font-specification:Ubuntu Medium Italic"
       id="path4237"
       inkscape:connector-curvature="0" />
    <path
       sodipodi:nodetypes="csccccccccc"
       inkscape:connector-curvature="0"
       style="font-size:117.35437775px;font-style:italic;font-variant:normal;font-weight:500;font-stretch:normal;text-align:start;line-height:125%;letter-spacing:0px;word-spacing:0px;writing-mode:lr-tb;text-anchor:start;fill:#ff4e18;fill-opacity:1;stroke:none;font-family:Ubuntu;-inkscape-font-specification:Ubuntu Medium Italic"
       d="m 245.51627,939.66668 c -1.49134,1.33901 -2.98225,2.67912 -4.52306,3.96106 -1.84411,1.53429 -4.2784,3.46639 -6.78463,5.43807 0.97957,1.39685 1.94056,2.84021 2.86915,4.36389 1.69009,2.6893 3.22139,5.46759 4.65808,8.32494 1.43657,2.85738 2.76611,5.6859 3.94918,8.45922 l 16.97839,0 c -1.01414,-2.85737 -2.30997,-5.95371 -3.91548,-9.23129 -1.60573,-3.27756 -3.38957,-6.50769 -5.33316,-9.70125 -1.9437,-3.1935 -3.96322,-6.25628 -6.07575,-9.19772 -0.60249,-0.83886 -1.22022,-1.63957 -1.82272,-2.41692 z"
       id="path4241" />
    <path
       id="path4243"
       d="m 242.26064,872.36218 -15.96576,2.51762 -22.95282,95.33406 15.22317,0 5.26565,-21.68514 c 2.74105,-2.09253 11.76848,-9.01946 17.1471,-13.49447 3.0328,-2.52333 5.9079,-5.22458 8.87729,-7.82142 2.94606,-2.57641 6.00413,-5.08185 8.8774,-7.68715 2.87304,-2.60519 5.61625,-5.21611 8.2359,-7.82142 2.61975,-2.60519 4.959,-5.09897 6.98716,-7.45217 l -17.61966,0 c -1.52115,1.68088 -3.35554,3.5721 -5.46817,5.67305 -2.11264,2.01702 -4.36774,4.17609 -6.81834,6.44512 -2.36625,2.1851 -4.92433,4.41106 -7.62844,6.6801 -2.70422,2.1851 -5.34633,4.29392 -7.96598,6.31084 l 13.8055,-56.99902 z"
       style="font-size:117.35437775px;font-style:italic;font-variant:normal;font-weight:500;font-stretch:normal;text-align:start;line-height:125%;letter-spacing:0px;word-spacing:0px;writing-mode:lr-tb;text-anchor:start;fill:#ffffff;fill-opacity:1;stroke:none;font-family:Ubuntu;-inkscape-font-specification:Ubuntu Medium Italic"
       inkscape:connector-curvature="0" />
    <g
       style="fill:#ff4e18;fill-opacity:1"
       transform="matrix(1.1337111,0,0,1.1399915,-3.4844095,288.67485)"
       id="g4245">
      <path
         inkscape:connector-curvature="0"
         id="path4247"
         style="font-size:70.02800751px;font-style:italic;font-variant:normal;font-weight:300;font-stretch:normal;text-align:start;line-height:125%;letter-spacing:0px;word-spacing:0px;writing-mode:lr-tb;text-anchor:start;fill:#ff4e18;fill-opacity:1;stroke:none;font-family:Ubuntu;-inkscape-font-specification:Ubuntu Light Italic"
         d="m 421.50613,616.64761 c -0.66346,-0.14741 -1.27161,-0.25798 -1.82444,-0.33172 -0.55288,-0.0737 -1.12417,-0.11054 -1.71386,-0.11056 -2.28516,2e-5 -4.3123,0.4423 -6.08142,1.32685 -1.76916,0.88459 -3.26187,2.04559 -4.47814,3.483 -1.2163,1.43745 -2.15616,3.07758 -2.81957,4.92043 -0.62659,1.84287 -0.93987,3.72258 -0.93986,5.63913 -1e-5,1.51115 0.14741,2.78273 0.44228,3.81473 0.29486,0.99514 0.70028,1.806 1.21629,2.43256 0.51598,0.58972 1.10571,1.032 1.76914,1.32686 0.70028,0.258 1.43742,0.387 2.21144,0.387 1.51112,0 2.93011,-0.35014 4.25698,-1.05043 1.32685,-0.73714 2.57999,-1.76914 3.75943,-3.09599 -10e-6,-0.99515 0.14741,-2.13771 0.44229,-3.42772 0.29483,-1.28998 0.57127,-2.45099 0.82928,-3.48301 l 2.93016,-11.83113 m -3.20658,25.81842 c -0.22117,-0.44228 -0.42388,-0.93985 -0.60815,-1.49272 -0.14745,-0.58971 -0.25801,-1.17941 -0.3317,-1.76914 -1.29003,1.25315 -2.65374,2.17458 -4.09115,2.76429 -1.40059,0.58971 -2.85645,0.88457 -4.36757,0.88457 -1.17945,0 -2.30358,-0.20272 -3.37243,-0.60814 -1.06886,-0.40543 -2.00872,-1.032 -2.81958,-1.87971 -0.81085,-0.84772 -1.47428,-1.935 -1.99027,-3.26186 -0.47915,-1.36371 -0.71872,-2.967 -0.71872,-4.80985 0,-2.94857 0.47914,-5.62071 1.43743,-8.01643 0.95827,-2.3957 2.28514,-4.42284 3.98058,-6.08143 1.73226,-1.69541 3.7594,-3.00384 6.08142,-3.92528 2.35884,-0.92141 4.9204,-1.38212 7.68471,-1.38214 2.28511,2e-5 4.47811,0.38702 6.57899,1.16099 l -4.25698,17.19385 c -0.22118,0.92144 -0.40547,1.78759 -0.55287,2.59843 -0.14746,0.81087 -0.22116,1.58486 -0.22114,2.322 -2e-5,0.99515 0.0922,1.935 0.27643,2.81957 0.18426,0.88458 0.51598,1.86129 0.99514,2.93015 l -3.70414,0.55285" />
      <path
         inkscape:connector-curvature="0"
         id="path4249"
         style="font-size:70.02800751px;font-style:italic;font-variant:normal;font-weight:300;font-stretch:normal;text-align:start;line-height:125%;letter-spacing:0px;word-spacing:0px;writing-mode:lr-tb;text-anchor:start;fill:#ff4e18;fill-opacity:1;stroke:none;font-family:Ubuntu;-inkscape-font-specification:Ubuntu Light Italic"
         d="m 432.47946,638.81718 c 1.14257,0.33171 2.30357,0.49757 3.48301,0.49756 2.28512,10e-6 4.31226,-0.44228 6.08142,-1.32685 1.76913,-0.92143 3.26184,-2.10085 4.47815,-3.53829 1.21626,-1.47427 2.13769,-3.11441 2.76428,-4.92042 0.62654,-1.84284 0.93983,-3.70413 0.93986,-5.58386 -3e-5,-2.76427 -0.60818,-4.77297 -1.82443,-6.02613 -1.21631,-1.28998 -3.04073,-1.93498 -5.47328,-1.93501 -0.84774,3e-5 -1.71387,0.0738 -2.59843,0.22115 -0.84773,0.14745 -1.73231,0.35016 -2.65371,0.60813 l -5.19687,22.00372 m 2.10087,-24.10457 c 1.54798,-0.55283 3.09598,-0.99512 4.64399,-1.32686 1.54799,-0.33168 3.07755,-0.49754 4.58872,-0.49756 6.70797,2e-5 10.06196,3.50144 10.06199,10.50428 -3e-5,2.46944 -0.40545,4.86515 -1.21628,7.18714 -0.81089,2.322 -2.00874,4.386 -3.59357,6.192 -1.54802,1.76914 -3.46459,3.18813 -5.74972,4.25699 -2.2483,1.06886 -4.8283,1.60328 -7.74,1.60328 -1.43743,0 -2.76429,-0.16585 -3.98056,-0.49756 l -2.43258,10.22785 -3.64886,0 9.06687,-37.64956" />
      <path
         inkscape:connector-curvature="0"
         id="path4251"
         style="font-size:70.02800751px;font-style:italic;font-variant:normal;font-weight:300;font-stretch:normal;text-align:start;line-height:125%;letter-spacing:0px;word-spacing:0px;writing-mode:lr-tb;text-anchor:start;fill:#ff4e18;fill-opacity:1;stroke:none;font-family:Ubuntu;-inkscape-font-specification:Ubuntu Light Italic"
         d="m 461.20211,638.81718 c 1.14257,0.33171 2.30357,0.49757 3.48301,0.49756 2.28512,10e-6 4.31227,-0.44228 6.08142,-1.32685 1.76913,-0.92143 3.26184,-2.10085 4.47815,-3.53829 1.21626,-1.47427 2.13769,-3.11441 2.76428,-4.92042 0.62655,-1.84284 0.93983,-3.70413 0.93986,-5.58386 -3e-5,-2.76427 -0.60817,-4.77297 -1.82443,-6.02613 -1.21631,-1.28998 -3.04073,-1.93498 -5.47328,-1.93501 -0.84774,3e-5 -1.71387,0.0738 -2.59844,0.22115 -0.84772,0.14745 -1.7323,0.35016 -2.6537,0.60813 l -5.19687,22.00372 m 2.10087,-24.10457 c 1.54798,-0.55283 3.09598,-0.99512 4.64399,-1.32686 1.54799,-0.33168 3.07756,-0.49754 4.58872,-0.49756 6.70797,2e-5 10.06196,3.50144 10.062,10.50428 -4e-5,2.46944 -0.40546,4.86515 -1.21629,7.18714 -0.81089,2.322 -2.00874,4.386 -3.59357,6.192 -1.54802,1.76914 -3.46459,3.18813 -5.74972,4.25699 -2.2483,1.06886 -4.82829,1.60328 -7.73999,1.60328 -1.43744,0 -2.7643,-0.16585 -3.98057,-0.49756 l -2.43258,10.22785 -3.64885,0 9.06686,-37.64956" />
      <path
         inkscape:connector-curvature="0"
         id="path4253"
         style="font-size:70.02800751px;font-style:italic;font-variant:normal;font-weight:300;font-stretch:normal;text-align:start;line-height:125%;letter-spacing:0px;word-spacing:0px;writing-mode:lr-tb;text-anchor:start;fill:#ff4e18;fill-opacity:1;stroke:none;font-family:Ubuntu;-inkscape-font-specification:Ubuntu Light Italic"
         d="m 485.05962,637.60089 c 1.36371,0.73715 2.56157,1.23472 3.59357,1.49271 1.03199,0.25801 2.19299,0.38701 3.483,0.38701 0.92141,0 1.80599,-0.0922 2.65372,-0.27644 0.8477,-0.22114 1.58483,-0.53442 2.21142,-0.93985 0.62656,-0.40542 1.12413,-0.93985 1.49271,-1.60328 0.36856,-0.66344 0.55284,-1.43743 0.55286,-2.32201 -2e-5,-0.95827 -0.27644,-1.7507 -0.82928,-2.37728 -0.51602,-0.62656 -1.17945,-1.16099 -1.99028,-1.60328 -0.77402,-0.47914 -1.62174,-0.93985 -2.54315,-1.38215 -0.92144,-0.44227 -1.78758,-0.95827 -2.59843,-1.548 -0.774,-0.58969 -1.43743,-1.32684 -1.99029,-2.21143 -0.516,-0.88455 -0.774,-2.02712 -0.774,-3.42771 0,-1.58484 0.29485,-2.93012 0.88457,-4.03586 0.58971,-1.14255 1.38214,-2.06397 2.37729,-2.76429 0.99513,-0.73711 2.13771,-1.27154 3.42772,-1.60328 1.28999,-0.33168 2.61684,-0.49754 3.98057,-0.49756 1.1794,2e-5 2.34041,0.11059 3.48299,0.3317 1.17941,0.18432 2.30355,0.47917 3.37244,0.88457 l -1.43744,3.20658 c -0.77402,-0.33169 -1.65859,-0.5897 -2.6537,-0.77401 -0.99517,-0.2211 -2.02717,-0.33168 -3.096,-0.3317 -0.88459,2e-5 -1.75075,0.0921 -2.59844,0.27642 -0.81086,0.18432 -1.52958,0.4976 -2.15614,0.93985 -0.62658,0.40546 -1.14258,0.93989 -1.54799,1.6033 -0.36859,0.62659 -0.55287,1.40059 -0.55286,2.32199 -1e-5,0.95832 0.25798,1.75074 0.774,2.37729 0.55284,0.62659 1.21627,1.17945 1.99028,1.65857 0.77399,0.47916 1.6217,0.93987 2.54314,1.38214 0.95827,0.40544 1.82441,0.90302 2.59843,1.49271 0.77399,0.58973 1.41898,1.30844 1.935,2.15614 0.55284,0.81088 0.82926,1.86131 0.82928,3.15129 -2e-5,1.62172 -0.3133,3.0223 -0.93985,4.20172 -0.58974,1.17942 -1.38216,2.13771 -2.37729,2.87486 -0.99516,0.73714 -2.13773,1.27157 -3.42772,1.60328 -1.29001,0.36857 -2.61686,0.55286 -3.98056,0.55286 -1.43743,0 -2.87487,-0.16587 -4.31229,-0.49758 -1.43742,-0.29486 -2.74586,-0.77399 -3.92529,-1.43742 l 1.54801,-3.26186" />
    </g>
  </g>
</svg>
