<?xml version="1.0" encoding="UTF-8" standalone="no"?>
<!-- Created with Inkscape (http://www.inkscape.org/) -->

<svg
   xmlns:dc="http://purl.org/dc/elements/1.1/"
   xmlns:cc="http://creativecommons.org/ns#"
   xmlns:rdf="http://www.w3.org/1999/02/22-rdf-syntax-ns#"
   xmlns:svg="http://www.w3.org/2000/svg"
   xmlns="http://www.w3.org/2000/svg"
   xmlns:sodipodi="http://sodipodi.sourceforge.net/DTD/sodipodi-0.dtd"
   xmlns:inkscape="http://www.inkscape.org/namespaces/inkscape"
   width="50"
   height="50"
   id="svg2"
   version="1.1"
   inkscape:version="0.91 r13725"
   sodipodi:docname="kickstand_logo.svg"
   inkscape:export-filename="C:\Users\Travis\My Dropbox\Kickstand\kickstand logos\k.png"
   inkscape:export-xdpi="90"
   inkscape:export-ydpi="90">
  <defs
     id="defs4" />
  <sodipodi:namedview
     id="base"
     pagecolor="#ffffff"
     bordercolor="#666666"
     borderopacity="1.0"
     inkscape:pageopacity="0.0"
     inkscape:pageshadow="2"
     inkscape:zoom="2"
     inkscape:cx="28.824838"
     inkscape:cy="93.288615"
     inkscape:document-units="px"
     inkscape:current-layer="layer1"
     showgrid="false"
     inkscape:window-width="1280"
     inkscape:window-height="687"
     inkscape:window-x="0"
     inkscape:window-y="0"
     inkscape:window-maximized="1">
    <inkscape:grid
       type="xygrid"
       id="grid3014"
       empspacing="5"
       visible="true"
       enabled="true"
       snapvisiblegridlinesonly="true" />
  </sodipodi:namedview>
  <metadata
     id="metadata7">
    <rdf:RDF>
      <cc:Work
         rdf:about="">
        <dc:format>image/svg+xml</dc:format>
        <dc:type
           rdf:resource="http://purl.org/dc/dcmitype/StillImage" />
        <dc:title></dc:title>
      </cc:Work>
    </rdf:RDF>
  </metadata>
  <g
     inkscape:label="Layer 1"
     inkscape:groupmode="layer"
     id="layer1"
     transform="translate(0,-1002.3622)">
    <flowRoot
       xml:space="preserve"
       id="flowRoot3890"
       style="font-style:normal;font-variant:normal;font-weight:normal;font-stretch:normal;font-size:40px;line-height:125%;font-family:'Open Sans';-inkscape-font-specification:'Open Sans';letter-spacing:0px;word-spacing:0px;fill:#000000;fill-opacity:1;stroke:none"
       transform="translate(-2678.9766,618.22934)"><flowRegion
         id="flowRegion3892"><rect
           id="rect3894"
           width="4306.25"
           height="1350"
           x="4600"
           y="177.36218" /></flowRegion><flowPara
         id="flowPara3896" /></flowRoot>    <flowRoot
       xml:space="preserve"
       id="flowRoot3890-5"
       style="font-style:normal;font-variant:normal;font-weight:normal;font-stretch:normal;font-size:40px;line-height:125%;font-family:'Open Sans';-inkscape-font-specification:'Open Sans';letter-spacing:0px;word-spacing:0px;fill:#000000;fill-opacity:1;stroke:none"
       transform="matrix(0.38292422,0,0,0.38292422,1037.7543,-199.29518)"><flowRegion
         id="flowRegion3892-5"><rect
           id="rect3894-5"
           width="4306.25"
           height="1350"
           x="4600"
           y="177.36218" /></flowRegion><flowPara
         id="flowPara3896-4" /></flowRoot>    <g
       transform="matrix(0.49673231,0,0,0.49399657,-531.16241,610.93081)"
       id="g4219"
       style="fill:#ffffff;opacity:0.5">
      <path
         sodipodi:nodetypes="csccccccccc"
         inkscape:connector-curvature="0"
         style="font-style:italic;font-variant:normal;font-weight:500;font-stretch:normal;font-size:117.35437775px;line-height:125%;font-family:Ubuntu;-inkscape-font-specification:'Ubuntu Medium Italic';text-align:start;letter-spacing:0px;word-spacing:0px;writing-mode:lr-tb;text-anchor:start;fill:#ffffff;fill-opacity:1;stroke:none"
         d="m 1126,860.09375 c -1.3807,1.24653 -2.761,2.49409 -4.1875,3.6875 -1.7073,1.42832 -3.961,3.22699 -6.2813,5.0625 0.9069,1.30038 1.7966,2.64405 2.6563,4.0625 1.5647,2.50357 2.9824,5.08998 4.3125,7.75 1.33,2.66004 2.5609,5.29321 3.6562,7.875 l 15.7188,0 c -0.9389,-2.66003 -2.1386,-5.54253 -3.625,-8.59375 -1.4866,-3.0512 -3.1381,-6.05825 -4.9375,-9.03125 -1.7995,-2.97295 -3.6692,-5.82421 -5.625,-8.5625 -0.5578,-0.78093 -1.1297,-1.52634 -1.6875,-2.25 z"
         id="path4221" />
      <path
         id="path4223"
         d="m 1122.9859,797.4375 -14.7813,2.34375 -21.25,88.75 14.0938,0 4.875,-20.1875 c 2.5377,-1.94801 10.8954,-8.39655 15.875,-12.5625 2.8078,-2.34906 5.4696,-4.86376 8.2187,-7.28125 2.7275,-2.39848 5.5587,-4.73088 8.2188,-7.15625 2.6599,-2.42527 5.1996,-4.85587 7.6249,-7.28125 2.4254,-2.42527 4.5911,-4.74682 6.4688,-6.9375 l -16.3125,0 c -1.4083,1.56479 -3.1066,3.3254 -5.0625,5.28125 -1.9559,1.87772 -4.0437,3.88768 -6.3125,6 -2.1907,2.03419 -4.559,4.10642 -7.0625,6.21875 -2.5036,2.03419 -4.9497,3.99737 -7.375,5.875 l 12.7813,-53.0625 z"
         style="font-style:italic;font-variant:normal;font-weight:500;font-stretch:normal;font-size:117.35437775px;line-height:125%;font-family:Ubuntu;-inkscape-font-specification:'Ubuntu Medium Italic';text-align:start;letter-spacing:0px;word-spacing:0px;writing-mode:lr-tb;text-anchor:start;fill:#ffffff;fill-opacity:1;stroke:none"
         inkscape:connector-curvature="0" />
    </g>
  </g>
</svg>
